# xmcd
# 
# Track frame offsets:
#     182
#     13095
#     24575
#     36460
#     49770
#     61895
#     73430
#     84330
#     96000
#     107880
#     118727
#     130642
#     143357
#     156190
#     166557
#     179727
#     190795
#     199722
# 
# Disc length: 2812
# 
# Revision: 5
# Processed by: cddbd v1.5.2PL0 Copyright (c) Steve Scherf et al.
# Submitted via: fre:ac v1.0.31
# 
DISCID=f40afa12
DTITLE=Columbia Blues - Junior Parker Junior's Blues: The Duke Recordings (Vol. 1)
DYEAR=1992
DGENRE=Blues
TTITLE0=I Wanna Ramble
TTITLE1=Mother-In-Law Blues
TTITLE2=Next Time You See Me
TTITLE3=That's All Right
TTITLE4=Sitting And Thinking
TTITLE5=Sweet Home Chicago
TTITLE6=Sometimes
TTITLE7=Stand By Me
TTITLE8=Driving Wheel
TTITLE9=Seven Days
TTITLE10=In The Dark
TTITLE11=Someone Somewhere
TTITLE12=It's A Pity
TTITLE13=Yonder's Wall
TTITLE14=Strange Things Happening
TTITLE15=The Things I Used To Do
TTITLE16=Jivin' Woman
TTITLE17=Cryin' For My Baby
EXTD=MCAD-10669\n\nSubmitted 6/16/97\n[Jmccoy@efn.org]
EXTT0=
EXTT1=
EXTT2=
EXTT3=
EXTT4=
EXTT5=
EXTT6=
EXTT7=
EXTT8=
EXTT9=
EXTT10=
EXTT11=
EXTT12=
EXTT13=
EXTT14=
EXTT15=
EXTT16=
EXTT17=
PLAYORDER=
